<?xml version="1.0" encoding="utf-8"?>
<!-- Generator: Adobe Illustrator 19.2.1, SVG Export Plug-In . SVG Version: 6.00 Build 0)  -->
<svg version="1.1" id="Layer_1" xmlns="http://www.w3.org/2000/svg" xmlns:xlink="http://www.w3.org/1999/xlink" x="0px" y="0px"
	 viewBox="0 0 727 108" style="enable-background:new 0 0 727 108;" xml:space="preserve">
<style type="text/css">
	.st0{fill:#FFFFFF;}
</style>
<g>
	<g id="cIeJ5x.tif">
		<g>
			<path class="st0" d="M266.7,4.9c0.1,0.1,0.1,0.2,0.2,0.3c0.2,0.6,0.1,1.2,0.1,1.8c0,19.7,0,39.5,0,59.2c0,1.9,0,1.9,1.9,1.9
				c12.5,0,24.9,0,37.4,0c1.7,0,1.7,0,1.7-1.7c0-4.2,0-8.3,0-12.5c0-1.8,0.1-2,2-2c20.3,0,40.6,0,61,0c2,0,2,0,2-1.9
				c0-4.5,0-9.1,0-13.6c0-1.6,0-1.6-1.6-1.6c-20.3,0-40.5,0-60.8,0c-2.5,0-2.5,0-2.5-2.5c0-2.4,0-4.8,0-7.1c0-2,0.2-2.2,2.2-2.2
				c20.4,0,40.8,0,61.1,0c0.4,0,0.8,0,1.3,0c0.8,0,1.1-0.3,1.1-1.1c0-0.3,0-0.6,0-0.9c0-4.8,0-9.7,0-14.5c0-0.4,0-0.9,0.1-1.3
				c0.1-0.1,0.1-0.2,0.2-0.3c0.3,0,0.7-0.1,0.6,0.5c0,0.1,0,0.3,0,0.4"/>
			<path class="st0" d="M161.7,4.9c0.1,0.1,0.1,0.2,0.1,0.3c-0.1,0.5-0.4,0.9-0.6,1.3c-3.9,6.5-7.8,13-11.7,19.6
				c-8.2,13.8-16.5,27.6-24.8,41.4c-0.1,0.2-0.3,0.4-0.3,0.7c0.3,0.1,0.5,0.1,0.8,0.1c12.2,0,24.4,0,36.6,0c1.1,0,1.8-0.4,2.4-1.4
				c8.9-14.8,17.8-29.6,26.7-44.5c0.8-1.3,1-1.3,1.8,0c5.5,9,10.9,17.9,16.4,26.9c0.3,0.5,1,1.1,0.7,1.7c-0.4,0.7-1.2,0.4-1.9,0.4
				c-6.5,0-13,0-19.5,0c-1,0-1.5,0.3-2,1.1c-2.8,4.8-5.7,9.6-8.6,14.4c-0.2,0.3-0.6,0.7-0.4,1.1c0.2,0.4,0.8,0.2,1.1,0.2
				c26,0,52,0,78,0c0.2,0,0.3,0,0.5,0c0.5,0,0.7-0.1,0.4-0.6c-0.4-0.7-0.8-1.4-1.2-2.1c-8.4-14.1-16.7-28.3-25.1-42.4
				c-3.3-5.6-6.7-11.3-10-16.9c-0.2-0.3-0.4-0.6-0.4-1c0-0.1,0-0.2,0.1-0.3"/>
			<path class="st0" d="M266.7,5.1c0-0.1,0-0.1,0-0.2c35.8,0,71.5,0,107.3,0c0,0.1,0,0.1,0,0.2c-0.3,0.3-0.6,0.3-1,0.3
				c-0.3,0-0.6,0-1,0c-34.5,0-68.9,0-103.4,0C268,5.4,267.3,5.6,266.7,5.1z"/>
			<path class="st0" d="M161.7,5.1c0-0.1,0-0.1,0-0.2c19.6,0,39.3,0,58.9,0c0,0.1,0,0.1,0,0.2c-0.5,0.4-1.2,0.3-1.8,0.3
				c-15.2,0-30.3,0-45.5,0c-3.4,0-6.8,0-10.2,0C162.7,5.4,162.2,5.5,161.7,5.1z"/>
			<path class="st0" d="M161.7,5.1c19.6,0,39.3,0,58.9,0C233,26.2,245.5,47.2,258,68.4c-27.2,0-54.3,0-81.4,0
				c-0.1-0.3,0.2-0.5,0.3-0.8c3.1-5.3,6.3-10.6,9.4-15.9c0.3-0.6,0.7-0.8,1.4-0.8c6.9,0,13.9,0,20.8,0c0.3,0,0.7,0,1.2,0
				c-6-9.9-12-19.7-17.9-29.5c-0.4,0.2-0.5,0.5-0.6,0.8C182.1,37.3,173,52.4,164,67.5c-0.4,0.6-0.8,0.8-1.5,0.8c-12.5,0-25,0-37.5,0
				c-0.3,0-0.6,0-1.1,0C136.5,47.3,149.1,26.2,161.7,5.1z"/>
			<path class="st0" d="M266.7,5.1c0.1,0,0.2,0,0.3,0c35.7,0,71.3,0,107,0c0,2.1,0.1,4.2,0.1,6.3c0,3.7,0,7.3,0,11
				c0,0.9-0.3,1.1-1.1,1.1c-21.1,0-42.2,0-63.4,0c-1.3,0-1.3,0-1.3,1.3c0,3,0,5.9,0,8.9c0,0.8,0.2,1.1,1,1c20.9,0,41.7,0,62.6,0
				c1.3,0,1.3,0,1.3,1.3c0,5.1,0,10.1,0,15.2c0,0.9-0.2,1.1-1.1,1.1c-20.9,0-41.7,0-62.6,0c-1,0-1.3,0.2-1.3,1.2
				c0.1,4.7,0,9.4,0,14.2c0,0.7-0.1,0.9-0.9,0.9c-13.3,0-26.6,0-40,0c-0.8,0-0.9-0.2-0.9-0.9c0-20.5,0-41.1,0-61.6
				C266.6,5.7,266.7,5.4,266.7,5.1z"/>
			<g>
				<path class="st0" d="M5.7,5c23.9,0,47.8,0,71.8,0h0.1V4.9c-11.7,0-23.4,0-35.1,0c-12.4,0-24.8,0-37.2,0c-0.2,0-0.6-0.2-0.8,0.2
					C4.9,4.9,5.3,5,5.7,5z"/>
				<path class="st0" d="M80.1,5.1c0-0.1,0-0.1,0-0.2c-0.8,0-1.7,0-2.5,0V5C78.4,5,79.2,4.9,80.1,5.1z"/>
				<path class="st0" d="M123.5,31.6c-1.2-6.5-4-12.2-8.9-16.8c-5.3-4.9-11.8-7.1-18.7-8.4C90.6,5.4,85.3,5.1,80,5
					c-0.8-0.1-1.7,0-2.5-0.1h-0.1c-23.9,0-47.8,0-71.8,0C5.2,4.9,4.8,4.8,4.5,5c0,21,0,42,0,63c0.4,0,0.7,0,1.1,0
					c23.9,0,47.9,0,71.8,0c5.1,0,10.2-0.2,15.3-0.9c5.4-0.7,10.6-1.9,15.5-4.4C119.3,57.1,125.9,43.8,123.5,31.6z M45.4,22.8
					c0-0.5,0-0.9,0.7-0.9c6.8,0.1,13.7-0.1,20.5,0.2c7.5,0.3,12.9,5,14.3,12.4c1.5,8.1-4.4,16-12.5,16.9c-2.6,0.3-5.2,0.3-7.8,0.3
					c-4.7,0-9.5,0-14.2,0c-0.8,0-1-0.2-1-1c0-4.7,0-9.3,0-14C45.4,32.1,45.4,27.4,45.4,22.8z"/>
			</g>
		</g>
	</g>
	<rect x="4.6" y="82.3" class="st0" width="370" height="23.5"/>
</g>
<rect x="417.9" y="4.8" class="st0" width="7.3" height="101.2"/>
<g>
	<path class="st0" d="M485.1,37.5v2.4c0,6.8-2.1,11-6.7,13.2v0.2c5.6,2.2,7.7,7.1,7.7,14.1v5.4c0,10.2-5.4,15.7-15.8,15.7H454V22.3
		h15.7C480.4,22.3,485.1,27.3,485.1,37.5z M464.4,31.8v17.5h4.1c3.9,0,6.2-1.7,6.2-7v-3.7c0-4.7-1.6-6.8-5.3-6.8H464.4z M464.4,58.7
		V79h5.9c3.5,0,5.4-1.6,5.4-6.5v-5.8c0-6.1-2-8-6.7-8H464.4z"/>
	<path class="st0" d="M502.7,50.2H517v9.4h-14.3v19.3h17.9v9.4h-28.3v-66h28.3v9.4h-17.9V50.2z"/>
</g>
<g>
	<path class="st0" d="M570.9,38.6v8.6c0,10.6-5.1,16.4-15.5,16.4h-4.9v24.9h-10.4V22.1h15.4C565.7,22.1,570.9,27.9,570.9,38.6z
		 M550.4,31.6v22.5h4.9c3.3,0,5.1-1.5,5.1-6.3v-10c0-4.7-1.8-6.3-5.1-6.3L550.4,31.6L550.4,31.6z"/>
	<path class="st0" d="M597.5,88.5c-0.6-1.7-0.9-2.8-0.9-8.2V69.9c0-6.2-2.1-8.4-6.8-8.4h-3.6v27h-10.4V22.1h15.7
		c10.8,0,15.5,5,15.5,15.3v5.2c0,6.8-2.2,11.2-6.8,13.4v0.2c5.2,2.2,6.9,7.1,6.9,14v10.2c0,3.2,0.1,5.6,1.1,8.1L597.5,88.5
		L597.5,88.5z M586.1,31.6V52h4.1c3.9,0,6.3-1.7,6.3-7v-6.5c0-4.7-1.6-6.8-5.3-6.8h-5.1V31.6z"/>
	<path class="st0" d="M613,38.1c0-10.6,5.6-16.7,15.8-16.7s15.8,6.1,15.8,16.7v34.5c0,10.6-5.6,16.7-15.8,16.7S613,83.2,613,72.6
		V38.1z M623.4,73.3c0,4.7,2.1,6.5,5.4,6.5c3.3,0,5.4-1.8,5.4-6.5V37.5c0-4.7-2.1-6.5-5.4-6.5c-3.3,0-5.4,1.8-5.4,6.5V73.3z"/>
	<path class="st0" d="M661.3,22.1v51.2c0,4.7,2.1,6.4,5.4,6.4s5.4-1.7,5.4-6.4V22.1h9.9v50.5c0,10.6-5.3,16.7-15.5,16.7
		s-15.6-6.1-15.6-16.7V22.1H661.3z"/>
	<path class="st0" d="M689.1,22.1h16.5c10.4,0,15.5,5.8,15.5,16.4v33.6c0,10.6-5.1,16.4-15.5,16.4h-16.5V22.1z M699.5,31.6V79h5.9
		c3.3,0,5.3-1.7,5.3-6.4V38.1c0-4.7-2-6.4-5.3-6.4h-5.9V31.6z"/>
</g>
</svg>
